<?xml version="1.0" encoding="utf-8"?>
<!-- Generator: Adobe Illustrator 18.1.1, SVG Export Plug-In . SVG Version: 6.00 Build 0)  -->
<svg version="1.0" id="Layer_1" xmlns="http://www.w3.org/2000/svg" xmlns:xlink="http://www.w3.org/1999/xlink" x="0px" y="0px"
	 width="1609.4px" height="568.9px" viewBox="0 0 1609.4 568.9" enable-background="new 0 0 1609.4 568.9" xml:space="preserve">
<g>
	<polygon fill="#FFFFFF" points="103.6,503.6 129.8,503.6 138.3,543.2 138.6,543.2 150.6,503.6 180.8,503.6 192.6,543.2 
		192.9,543.2 201.3,503.6 225.6,503.6 210.4,567 176.3,567 164.8,528.4 164.6,528.4 153,567 118.7,567 	"/>
	<path fill="#FFFFFF" d="M280.9,542.6l-9.9-22.1l-10.4,22.1H280.9z M255.3,503.6H289l32.8,63.4h-29.8l-4.7-10.5h-33.2l-5,10.5h-26.5
		L255.3,503.6z"/>
	<path fill="#FFFFFF" d="M351.5,546.6c0.1,3.5,0.8,6,2.5,7.7c1.8,1.7,4.2,2.5,7.7,2.5c5.6,0,11.6-1.3,11.6-6.4
		c0-1.1-0.4-2.1-1.1-2.9c-3.6-4-34.4-7-43-14.5c-3.5-3-4.5-7.5-4.5-11.1c0-13.9,12.9-20.1,38.6-20.1c27.3,0,35.6,7.5,36,20.5h-26.5
		c-0.2-3.5-1.3-5.7-3.3-7c-1.9-1.3-4.5-1.7-7.9-1.7c-5.7,0-8.7,2.1-8.7,5.3c0,1,0.4,2.2,1.2,2.9c4.2,3.9,33.9,6.8,42.4,14.3
		c2.5,2.2,5.1,5.6,5.1,11.7c0,12.6-11.2,20.6-40.5,20.6c-34.9,0-36.6-10.3-37.1-22H351.5z"/>
	<polygon fill="#FFFFFF" points="429.5,519 408.4,519 408.4,503.6 477.6,503.6 477.6,519 456.5,519 456.5,567 429.5,567 	"/>
	<polygon fill="#FFFFFF" points="487.2,503.6 548.8,503.6 548.8,516.9 513.4,516.9 513.4,528.6 546.6,528.6 546.6,541.9 
		513.4,541.9 513.4,553.6 549.2,553.6 549.2,567 487.2,567 	"/>
	<polygon fill="#FFFFFF" points="598.6,503.6 639.6,503.6 653,546.1 653.2,546.1 666.2,503.6 707.4,503.6 707.4,567 682.3,567 
		682.3,519.3 682.1,519.3 664.5,567 638.4,567 621.8,519.3 621.5,519.3 621.5,567 598.6,567 	"/>
	<path fill="#FFFFFF" d="M771.7,542.6l-9.9-22.1l-10.4,22.1H771.7z M746.1,503.6h33.7l32.7,63.4h-29.8l-4.7-10.5h-33.2l-5,10.5
		h-26.5L746.1,503.6z"/>
	<polygon fill="#FFFFFF" points="818.3,503.6 857.8,503.6 879.5,546.1 879.7,546.1 879.7,503.6 903.3,503.6 903.3,567 864.9,567 
		841.9,521.8 841.8,521.8 841.8,567 818.3,567 	"/>
	<path fill="#FFFFFF" d="M967.4,542.6l-10-22.1L947,542.6H967.4z M941.7,503.6h33.7l32.7,63.4h-29.8l-4.7-10.5h-33.2l-5,10.5H909
		L941.7,503.6z"/>
	<path fill="#FFFFFF" d="M1063.5,522.9c-0.4-1.7-1.4-3.6-3.4-5.1c-2-1.5-4.9-2.5-9.2-2.5c-11.6,0-18,7.6-18,19
		c0,12.2,5.7,21,19.1,21c5.8,0,10.1-0.9,12.5-2.2v-9.7h-15.7v-13.3h42.7v33.5c-12.6,2.9-29.4,5.1-43.5,5.1
		c-32.3,0-42.3-13.9-42.3-32.6c0-23.8,17-34.1,45.3-34.1c23.3,0,40.1,5,40.5,21H1063.5z"/>
	<polygon fill="#FFFFFF" points="1106.3,503.6 1167.9,503.6 1167.9,516.9 1132.5,516.9 1132.5,528.6 1165.6,528.6 1165.6,541.9 
		1132.5,541.9 1132.5,553.6 1168.2,553.6 1168.2,567 1106.3,567 	"/>
	<polygon fill="#FFFFFF" points="1180.2,503.6 1221.3,503.6 1234.7,546.1 1234.9,546.1 1247.9,503.6 1289.1,503.6 1289.1,567 
		1264,567 1264,519.3 1263.8,519.3 1246.2,567 1220,567 1203.5,519.3 1203.2,519.3 1203.2,567 1180.2,567 	"/>
	<polygon fill="#FFFFFF" points="1304.1,503.6 1365.7,503.6 1365.7,516.9 1330.3,516.9 1330.3,528.6 1363.5,528.6 1363.5,541.9 
		1330.3,541.9 1330.3,553.6 1366.1,553.6 1366.1,567 1304.1,567 	"/>
	<polygon fill="#FFFFFF" points="1377.9,503.6 1417.5,503.6 1439.2,546.1 1439.4,546.1 1439.4,503.6 1462.9,503.6 1462.9,567 
		1424.6,567 1401.6,521.8 1401.4,521.8 1401.4,567 1377.9,567 	"/>
	<polygon fill="#FFFFFF" points="1490.9,519 1469.8,519 1469.8,503.6 1539,503.6 1539,519 1517.9,519 1517.9,567 1490.9,567 	"/>
	<polygon fill="#FFFFFF" points="3,11.2 178.8,11.2 236.1,277.1 237.9,277.1 318.6,11.2 521.3,11.2 600.8,277.1 602.6,277.1 
		659.4,11.2 822.6,11.2 720.4,437 491.4,437 414.3,178.1 412.5,178.1 334.8,437 104,437 	"/>
	<polyline fill="none" stroke="#FFFFFF" stroke-width="10.4253" stroke-miterlimit="10" points="819.4,16.2 1044.7,16.2 
		1120.6,269.1 1122.4,269.1 1197.7,16.2 1421.3,16.2 1521.1,432.1 1361.7,432.1 1306.3,172.3 1304.5,172.3 1226.9,432.1 1029,432.1 
		950.2,172.3 948.4,172.3 892.3,432.1 720.7,432.1 	"/>
	<path fill="#FFFFFF" d="M1574.2,410v-9.2h6.2c3.2,0,6.5,0.7,6.5,4.3c0,4.6-3.5,4.8-7.3,4.8 M1574.2,413.8h5.2l7.9,12.9h5.1
		l-8.5-13.1c4.4-0.5,7.8-2.9,7.8-8.2c0-5.9-3.5-8.5-10.6-8.5h-11.5v29.7h4.6V413.8z M1579.7,437.6c14.2,0,26.4-10.9,26.4-25.8
		c0-14.8-12.1-25.7-26.4-25.7c-14.4,0-26.5,10.9-26.5,25.7C1553.1,426.7,1565.3,437.6,1579.7,437.6 M1558.4,411.8
		c0-12.2,9.3-21.4,21.3-21.4c11.8,0,21.1,9.2,21.1,21.4c0,12.4-9.3,21.5-21.1,21.5C1567.7,433.3,1558.4,424.2,1558.4,411.8"/>
</g>
</svg>
