<?xml version="1.0" encoding="utf-8"?>
<!-- Generator: Adobe Illustrator 18.1.1, SVG Export Plug-In . SVG Version: 6.00 Build 0)  -->
<svg version="1.1" xmlns="http://www.w3.org/2000/svg" xmlns:xlink="http://www.w3.org/1999/xlink" x="0px" y="0px"
	 viewBox="0 0 427.8 148.5" enable-background="new 0 0 427.8 148.5" xml:space="preserve">
<g id="Layer_1">
	<polygon fill="#C6C6BC" points="26.9,131.2 33.8,131.2 36.1,141.7 36.2,141.7 39.4,131.2 47.4,131.2 50.6,141.7 50.7,141.7 
		52.9,131.2 59.4,131.2 55.4,148.1 46.3,148.1 43.2,137.8 43.1,137.8 40,148.1 30.9,148.1 	"/>
	<path fill="#C6C6BC" d="M74.2,141.6l-2.7-5.9l-2.8,5.9H74.2z M67.3,131.2h9l8.8,16.9h-8l-1.3-2.8H67l-1.3,2.8h-7.1L67.3,131.2z"/>
	<path fill="#C6C6BC" d="M93,142.6c0,0.9,0.2,1.6,0.7,2.1c0.5,0.4,1.1,0.7,2.1,0.7c1.5,0,3.1-0.4,3.1-1.7c0-0.3-0.1-0.6-0.3-0.8
		c-1-1.1-9.2-1.9-11.5-3.9c-0.9-0.8-1.2-2-1.2-2.9c0-3.7,3.4-5.4,10.3-5.4c7.3,0,9.5,2,9.6,5.5h-7.1c-0.1-0.9-0.4-1.5-0.9-1.9
		c-0.5-0.4-1.2-0.5-2.1-0.5c-1.5,0-2.3,0.6-2.3,1.4c0,0.3,0.1,0.6,0.3,0.8c1.1,1.1,9.1,1.8,11.3,3.8c0.7,0.6,1.4,1.5,1.4,3.1
		c0,3.3-3,5.5-10.8,5.5c-9.3,0-9.8-2.7-9.9-5.9L93,142.6L93,142.6L93,142.6z"/>
	<polygon fill="#C6C6BC" points="113.8,135.3 108.2,135.3 108.2,131.2 126.7,131.2 126.7,135.3 121.1,135.3 121.1,148.1 
		113.8,148.1 	"/>
	<polygon fill="#C6C6BC" points="129.2,131.2 145.7,131.2 145.7,134.7 136.2,134.7 136.2,137.8 145.1,137.8 145.1,141.4 
		136.2,141.4 136.2,144.5 145.8,144.5 145.8,148.1 129.2,148.1 	"/>
	<polygon fill="#C6C6BC" points="159,131.2 169.9,131.2 173.5,142.5 173.6,142.5 177,131.2 188,131.2 188,148.1 181.3,148.1 
		181.3,135.4 181.3,135.4 176.6,148.1 169.6,148.1 165.2,135.4 165.1,135.4 165.1,148.1 159,148.1 	"/>
	<path fill="#C6C6BC" d="M205.2,141.6l-2.7-5.9l-2.8,5.9H205.2z M198.3,131.2h9l8.8,16.9h-8l-1.3-2.8H198l-1.3,2.8h-7.1L198.3,131.2
		z"/>
	<polygon fill="#C6C6BC" points="217.6,131.2 228.2,131.2 233.9,142.5 234,142.5 234,131.2 240.3,131.2 240.3,148.1 230,148.1 
		223.9,136 223.9,136 223.9,148.1 217.6,148.1 	"/>
	<path fill="#C6C6BC" d="M257.4,141.6l-2.7-5.9l-2.8,5.9H257.4z M250.6,131.2h9l8.7,16.9h-8l-1.3-2.8h-8.9l-1.3,2.8h-7.1
		L250.6,131.2z"/>
	<path fill="#C6C6BC" d="M283,136.3c-0.1-0.4-0.4-1-0.9-1.4c-0.5-0.4-1.3-0.7-2.4-0.7c-3.1,0-4.8,2-4.8,5.1c0,3.2,1.5,5.6,5.1,5.6
		c1.5,0,2.7-0.2,3.3-0.6v-2.6h-4.2v-3.6h11.4v8.9c-3.4,0.8-7.8,1.4-11.6,1.4c-8.6,0-11.3-3.7-11.3-8.7c0-6.3,4.5-9.1,12.1-9.1
		c6.2,0,10.7,1.3,10.8,5.6L283,136.3L283,136.3z"/>
	<polygon fill="#C6C6BC" points="294.5,131.2 310.9,131.2 310.9,134.7 301.4,134.7 301.4,137.8 310.3,137.8 310.3,141.4 
		301.4,141.4 301.4,144.5 311,144.5 311,148.1 294.5,148.1 	"/>
	<polygon fill="#C6C6BC" points="314.2,131.2 325.2,131.2 328.7,142.5 328.8,142.5 332.3,131.2 343.3,131.2 343.3,148.1 
		336.6,148.1 336.6,135.4 336.5,135.4 331.8,148.1 324.8,148.1 320.4,135.4 320.3,135.4 320.3,148.1 314.2,148.1 	"/>
	<polygon fill="#C6C6BC" points="347.3,131.2 363.7,131.2 363.7,134.7 354.3,134.7 354.3,137.8 363.1,137.8 363.1,141.4 
		354.3,141.4 354.3,144.5 363.8,144.5 363.8,148.1 347.3,148.1 	"/>
	<polygon fill="#C6C6BC" points="367,131.2 377.5,131.2 383.3,142.5 383.4,142.5 383.4,131.2 389.7,131.2 389.7,148.1 379.4,148.1 
		373.3,136 373.2,136 373.2,148.1 367,148.1 	"/>
	<polygon fill="#C6C6BC" points="397.1,135.3 391.5,135.3 391.5,131.2 410,131.2 410,135.3 404.3,135.3 404.3,148.1 397.1,148.1 	
		"/>
	<polygon fill="#C6C6BC" points="0,0 46.9,0 62.2,70.9 62.7,70.9 84.2,0 138.3,0 159.6,70.9 160,70.9 175.2,0 218.8,0 191.5,113.4 
		130.4,113.4 109.8,44.5 109.3,44.5 88.6,113.4 27,113.4 	"/>
	<path fill="#C6C6BC" d="M419.3,106.2v-2.4h1.7c0.8,0,1.7,0.2,1.7,1.1c0,1.2-0.9,1.3-2,1.3 M419.3,107.3h1.4l2.1,3.4h1.4l-2.3-3.5
		c1.2-0.1,2.1-0.8,2.1-2.2c0-1.6-0.9-2.3-2.8-2.3h-3.1v7.9h1.2L419.3,107.3L419.3,107.3z M420.8,113.6c3.8,0,7-2.9,7-6.9
		c0-3.9-3.2-6.8-7-6.8c-3.8,0-7.1,2.9-7.1,6.8C413.7,110.7,417,113.6,420.8,113.6 M415.1,106.7c0-3.3,2.5-5.7,5.7-5.7
		c3.2,0,5.7,2.4,5.7,5.7c0,3.3-2.5,5.7-5.7,5.7C417.6,112.5,415.1,110,415.1,106.7"/>
</g>
<g id="Layer_2">
	<g>
		<path fill="#C6C6BC" d="M380.7,3.1l25.8,107.4h-37.3L354.5,42l-0.5-2.4h-2.4h-0.5h-2.2l-0.6,2.1l-20.6,68.7H278l-20.9-68.7
			l-0.6-2.1h-2.2h-0.5h-2.4l-0.5,2.4l-14.8,68.5h-40.7L220.9,3.1h57L298,69.9l0.6,2.1h2.2h0.5h2.2l0.6-2.1l19.9-66.8H380.7 M383,0.1
			h-61.1l-20.6,69h-0.5l-20.7-69h-61.6l-27,113.4h46.9l15.3-70.8h0.5l21.5,70.8h54.1l21.2-70.8h0.5l15.1,70.8h43.6L383,0.1L383,0.1z
			"/>
	</g>
</g>
</svg>
